Coordinates
version=1
nRows=36
nColumns=33
inDegrees=yes

Units are S.I. units (second, meters, Newtons, ...)
Angles are in degrees.

endheader
time	ground_thorax_rot_x	ground_thorax_rot_y	ground_thorax_rot_z	ground_thorax_tx	ground_thorax_ty	ground_thorax_tz	clav_prot_r	clav_elev_r	scapula_abduction_r	scapula_elevation_r	scapula_upward_rot_r	scapula_winging_r	shoulder_elv_r	plane_of_elev_r	axial_rot_r	elbow_flexion_r	pro_sup_r	wrist_flex_r	wrist_dev_r	clav_prot_l	clav_elev_l	scapula_abduction_l	scapula_elevation_l	scapula_upward_rot_l	scapula_winging_l	shoulder_elv_l	plane_of_elev_l	axial_rot_l	elbow_flexion_l	pro_sup_l	wrist_flex_l	wrist_dev_l	
6.8400	1.899788	5.435102	12.750979	-0.124029	1.034613	0.031202	2.271180	10.781319	15.675372	6.190867	24.521961	-9.964758	22.213411	-75.891230	57.431197	65.537287	-20.603903	69.997231	-25.000000	11.211360	-5.143610	-16.451425	-20.196710	-42.474142	-0.395548	64.195738	-37.345496	-2.390923	72.411311	18.780770	3.000007	-24.999981	
6.8500	1.824540	5.549572	12.803150	-0.124196	1.034218	0.031400	2.230047	10.731231	15.410234	6.227116	24.286927	-9.858429	22.062130	-75.609034	57.219551	65.465953	-20.708717	69.994118	-25.000000	11.259596	-5.198844	-16.574059	-20.199035	-42.600716	-0.356587	64.366134	-37.108361	-2.306590	72.308774	18.668147	3.080012	-24.999965	
6.8600	1.776188	5.630649	12.869163	-0.124329	1.033789	0.031568	2.209047	10.696471	15.260254	6.244682	24.146680	-9.797658	21.969845	-75.447240	57.103013	65.437713	-20.776967	69.987939	-25.000000	11.286723	-5.252184	-16.639971	-20.174867	-42.662558	-0.332902	64.468270	-36.943027	-2.229036	72.249105	18.599956	3.125283	-24.999938	
6.8700	1.726562	5.712974	12.930248	-0.124413	1.033389	0.031752	2.184097	10.657221	15.100340	6.260110	24.001058	-9.732674	21.883597	-75.260683	56.962626	65.415851	-20.866881	69.978419	-25.000000	11.321689	-5.316976	-16.723531	-20.144900	-42.736414	-0.302343	64.580298	-36.757155	-2.127329	72.179700	18.523105	3.176200	-24.999889	
6.8800	1.688489	5.782604	12.987975	-0.124441	1.033016	0.031934	2.166112	10.620276	14.982891	6.265970	23.889612	-9.683862	21.829031	-75.103028	56.842565	65.418331	-20.964408	69.962366	-25.000000	11.356887	-5.392666	-16.803845	-20.098979	-42.797864	-0.270524	64.670928	-36.583596	-2.004934	72.120718	18.456376	3.218977	-24.999801	
6.8900	1.664728	5.838697	13.020118	-0.124418	1.032707	0.032126	2.155772	10.578492	14.901171	6.260175	23.800208	-9.647180	21.812836	-74.952952	56.723746	65.451356	-21.098860	69.931641	-25.000000	11.403077	-5.497105	-16.906109	-20.029309	-42.868246	-0.228289	64.744812	-36.402544	-1.831540	72.061866	18.390003	3.261578	-24.999644	
6.9000	1.654007	5.887089	13.028808	-0.124346	1.032474	0.032326	2.155501	10.534814	14.850375	6.248472	23.723201	-9.620237	21.827937	-74.806290	56.606218	65.513334	-21.277791	69.882054	-25.000000	11.467068	-5.628550	-17.046399	-19.943507	-42.961449	-0.170880	64.805518	-36.208854	-1.607914	72.008072	18.317327	3.310952	-24.999362	
6.9100	1.657103	5.938842	13.017128	-0.124272	1.032309	0.032538	2.178300	10.498405	14.825841	6.248592	23.628336	-9.598376	21.870767	-74.645280	56.482126	65.619372	-21.570921	69.787153	-25.000000	11.587540	-5.806812	-17.315652	-19.855513	-43.153997	-0.067849	64.857596	-35.966280	-1.292307	71.978018	18.207745	3.397835	-24.998858	
6.9200	1.662875	5.999672	13.002539	-0.124185	1.032199	0.032760	2.219367	10.475246	14.811404	6.267533	23.510059	-9.576825	21.919122	-74.462976	56.352663	65.752103	-21.947432	69.653420	-25.000000	11.759837	-6.005908	-17.701702	-19.784325	-43.432794	0.075687	64.914281	-35.680288	-0.928423	71.977480	18.059930	3.524468	-24.997954	
6.9300	1.667187	6.065073	12.969833	-0.124091	1.032133	0.032984	2.278492	10.464263	14.818584	6.299838	23.381768	-9.560768	21.972703	-74.256476	56.224493	65.917745	-22.383881	69.479100	-25.000000	11.981313	-6.216304	-18.191295	-19.726803	-43.770485	0.257763	64.979577	-35.350950	-0.534765	72.006804	17.876362	3.689446	-24.996335	
6.9400	1.663225	6.122769	12.936523	-0.123939	1.032099	0.033193	2.342272	10.464649	14.859097	6.330591	23.286614	-9.559067	22.025704	-74.060602	56.125601	66.092416	-22.771107	69.286315	-25.000000	12.206289	-6.391667	-18.672806	-19.682296	-44.063411	0.441356	65.047479	-35.031685	-0.201478	72.061343	17.690780	3.862941	-24.993435	
6.9500	1.650716	6.173334	12.881365	-0.123757	1.032083	0.033380	2.413262	10.471435	14.944551	6.353514	23.230338	-9.575730	22.087399	-73.866082	56.052908	66.290789	-23.110134	69.043399	-25.000000	12.443803	-6.536641	-19.158446	-19.640945	-44.300520	0.634659	65.117891	-34.705374	0.073554	72.134754	17.489065	4.060883	-24.988241	
6.9600	1.629060	6.207379	12.818071	-0.123504	1.032102	0.033539	2.476484	10.474678	15.069739	6.352638	23.236146	-9.611594	22.164349	-73.695597	56.010430	66.492674	-23.332449	68.746695	-24.999999	12.658817	-6.632179	-19.565849	-19.591306	-44.412856	0.810295	65.181138	-34.406496	0.247005	72.204777	17.288116	4.269955	-24.978937	
6.9700	1.606090	6.240384	12.715563	-0.123244	1.032151	0.033676	2.539965	10.464107	15.239213	6.324741	23.286941	-9.665441	22.287170	-73.540757	55.977038	66.749513	-23.507719	68.259572	-24.999999	12.897068	-6.713855	-19.987647	-19.516684	-44.443433	1.007068	65.216779	-34.075266	0.392956	72.251947	17.011942	4.568940	-24.962267	
6.9800	1.580148	6.276655	12.609511	-0.122971	1.032232	0.033797	2.598087	10.438078	15.430547	6.273366	23.368620	-9.728683	22.456565	-73.405464	55.949496	67.043001	-23.624707	67.566396	-24.999998	13.155741	-6.786933	-20.424208	-19.420064	-44.409704	1.222738	65.226780	-33.723599	0.514219	72.268444	16.659938	4.968927	-24.932419	
6.9900	1.552037	6.332055	12.497542	-0.122742	1.032311	0.033908	2.663062	10.401089	15.639154	6.212491	23.450481	-9.796490	22.675168	-73.262465	55.916182	67.388317	-23.741489	66.629571	-24.999996	13.473264	-6.880168	-20.965342	-19.306028	-44.386244	1.488246	65.224008	-33.311566	0.657492	72.266360	16.206012	5.505096	-24.878918	
7.0000	1.510029	6.409706	12.414239	-0.122516	1.032406	0.034017	2.710345	10.344632	15.813837	6.138230	23.524466	-9.852271	22.948365	-73.109040	55.872426	67.755691	-23.757537	65.405441	-24.999994	13.828587	-6.985962	-21.570157	-19.177249	-44.360934	1.786768	65.227651	-32.875064	0.798687	72.241466	15.657437	6.204885	-24.783176	
7.0100	1.456696	6.503322	12.340006	-0.122293	1.032486	0.034124	2.742209	10.272197	15.968738	6.049196	23.603422	-9.901986	23.272449	-72.938397	55.813820	68.150298	-23.665482	63.911210	-24.999989	14.212983	-7.103010	-22.220175	-19.030887	-44.323331	2.110862	65.247454	-32.412420	0.933711	72.200799	15.038240	7.047468	-24.611415	
7.0200	1.391823	6.598551	12.287359	-0.122025	1.032557	0.034225	2.752754	10.185856	16.097299	5.945155	23.694029	-9.944266	23.622701	-72.740972	55.737162	68.526837	-23.424877	62.265577	-24.999981	14.583491	-7.222887	-22.833182	-18.866410	-44.249254	2.424721	65.308701	-31.958956	1.028589	72.145985	14.426662	7.954681	-24.336723	
7.0300	1.331260	6.681765	12.235583	-0.121708	1.032604	0.034309	2.756030	10.095358	16.242998	5.826351	23.819657	-9.994929	23.994370	-72.531572	55.634560	68.895346	-23.046626	60.425523	-24.999965	14.923042	-7.352638	-23.377676	-18.675913	-44.132981	2.713751	65.411716	-31.507382	1.087306	72.095868	13.864054	8.903633	-23.826261	
7.0400	1.277105	6.748808	12.191931	-0.121335	1.032619	0.034374	2.754326	10.001696	16.406097	5.695158	23.976058	-10.053376	24.380494	-72.311470	55.501347	69.250265	-22.546831	58.411427	-24.999938	15.226832	-7.492121	-23.847005	-18.461784	-43.979025	2.973534	65.547113	-31.059463	1.119997	72.042574	13.350746	9.878163	-23.101247	
7.0500	1.244173	6.793341	12.140458	-0.120928	1.032582	0.034410	2.767232	9.915112	16.622917	5.558921	24.166040	-10.131002	24.785983	-72.091020	55.318022	69.622161	-21.945331	56.082724	-24.999889	15.501517	-7.647426	-24.256969	-18.223330	-43.799006	3.208943	65.689312	-30.582558	1.158886	71.979736	12.857445	10.907566	-22.101537	
7.0600	1.223762	6.812550	12.082005	-0.120482	1.032492	0.034417	2.801301	9.830006	16.893307	5.418476	24.372786	-10.225296	25.175533	-71.836751	55.092625	69.965037	-21.291485	53.664004	-24.999801	15.742889	-7.811055	-24.598037	-17.963565	-43.583522	3.415816	65.842391	-30.085904	1.188122	71.876170	12.409123	11.899575	-20.994377	
7.0700	1.218443	6.809842	12.016954	-0.120012	1.032368	0.034387	2.858722	9.743166	17.224548	5.270338	24.598916	-10.338203	25.552526	-71.561953	54.807463	70.281991	-20.541757	50.956204	-24.999644	15.959432	-7.989294	-24.884420	-17.675686	-43.331111	3.601084	65.988597	-29.559521	1.221789	71.718275	11.959498	12.921582	-19.737048	
7.0800	1.212982	6.794862	11.950514	-0.119522	1.032215	0.034318	2.935077	9.639201	17.593060	5.109366	24.821147	-10.459000	25.895944	-71.236142	54.482960	70.527606	-19.778526	48.227487	-24.999362	16.168402	-8.178395	-25.147023	-17.362532	-43.042827	3.778645	66.124152	-29.010958	1.252778	71.473246	11.507580	13.900645	-18.554697	
7.0900	1.211223	6.767780	11.882448	-0.119025	1.032046	0.034213	3.034978	9.514796	17.997754	4.936445	25.027357	-10.585831	26.221269	-70.867117	54.077359	70.726629	-18.895081	45.218119	-24.998858	16.375129	-8.385274	-25.394666	-17.016996	-42.717478	3.952825	66.237538	-28.434929	1.290471	71.137785	11.002967	14.920881	-17.342130	
7.1000	1.205767	6.724566	11.813595	-0.118509	1.031864	0.034063	3.157377	9.364043	18.438671	4.746500	25.218299	-10.718231	26.490438	-70.423719	53.644399	70.807167	-18.057004	42.350231	-24.997953	16.574062	-8.599300	-25.617622	-16.646844	-42.350260	4.118881	66.330703	-27.838346	1.315589	70.690588	10.528145	15.830993	-16.251532	
7.1100	1.200701	6.666557	11.741915	-0.117985	1.031669	0.033861	3.297252	9.193180	18.924219	4.537384	25.417912	-10.861684	26.715083	-69.931170	53.193119	70.797232	-17.290042	39.353193	-24.996335	16.776023	-8.813427	-25.836601	-16.257991	-41.942179	4.287388	66.374100	-27.194249	1.352347	70.134326	10.040972	16.739192	-15.133519	
7.1200	1.186293	6.590843	11.671240	-0.117447	1.031444	0.033602	3.456517	8.999110	19.454505	4.307893	25.622099	-11.015564	26.864469	-69.360921	52.784214	70.638453	-16.807002	36.617919	-24.993433	16.978655	-9.013887	-26.048250	-15.861344	-41.489690	4.456589	66.372805	-26.512858	1.381522	69.457148	9.613944	17.535086	-14.111871	
7.1300	1.164880	6.503841	11.607283	-0.116910	1.031188	0.033294	3.639850	8.782540	20.026845	4.062341	25.818934	-11.177964	26.960354	-68.724982	52.409843	70.350724	-16.547156	33.954402	-24.988241	17.188901	-9.208991	-26.266445	-15.452256	-41.000111	4.632014	66.330388	-25.790408	1.400707	68.662258	9.210875	18.312401	-13.091813	
7.1400	1.133276	6.405680	11.559375	-0.116373	1.030899	0.032933	3.849883	8.543543	20.645549	3.800631	26.008875	-11.350303	26.982153	-68.011585	52.122852	69.876084	-16.638706	31.609567	-24.978925	17.405588	-9.396594	-26.490686	-15.033658	-40.475602	4.812663	66.247044	-25.034604	1.401539	67.737868	8.878376	19.019584	-12.137680	
7.1500	1.095895	6.298578	11.523697	-0.115844	1.030579	0.032529	4.088610	8.284162	21.314252	3.523885	26.193836	-11.533844	26.938366	-67.230269	51.921022	69.213237	-17.012830	29.423854	-24.962281	17.632347	-9.588080	-26.728268	-14.597445	-39.921479	5.000885	66.123601	-24.243241	1.399158	66.685993	8.589620	19.724351	-11.184521	
7.1600	1.050999	6.186805	11.496367	-0.115325	1.030250	0.032085	4.358471	7.987551	22.021988	3.224698	26.352138	-11.720751	26.838552	-66.372233	51.817959	68.316675	-17.647570	27.485761	-24.932343	17.868316	-9.802850	-26.978991	-14.130674	-39.347564	5.193332	65.984967	-23.431793	1.390348	65.506690	8.364321	20.408168	-10.262052	
7.1700	1.000536	6.068148	11.473244	-0.114811	1.029910	0.031610	4.657433	7.654097	22.757141	2.905842	26.476494	-11.906139	26.683587	-65.426451	51.833952	67.151513	-18.484547	25.683890	-24.879064	18.109468	-10.045454	-27.238863	-13.633732	-38.763500	5.386394	65.835278	-22.594471	1.394223	64.196792	8.194202	21.111273	-9.347347	
7.1800	0.941304	5.941099	11.447278	-0.114295	1.029573	0.031094	4.983898	7.268668	23.519178	2.554087	26.568886	-12.086106	26.446393	-64.394546	52.035870	65.622826	-19.633687	24.083997	-24.782650	18.350076	-10.312593	-27.498873	-13.110848	-38.170992	5.574135	65.676204	-21.725611	1.421198	62.745921	8.106727	21.800309	-8.486662	
7.1900	0.871297	5.794451	11.410021	-0.113768	1.029202	0.030524	5.338591	6.842632	24.316839	2.174330	26.644584	-12.263701	26.062324	-63.256836	52.544332	63.606221	-21.342668	22.683871	-24.612672	18.585159	-10.574491	-27.752714	-12.585976	-37.563816	5.756651	65.479255	-20.798433	1.507320	61.145822	8.120225	22.499359	-7.694469	
